<svg height="331" width="1890" style="" font-family="Arial, Helvetica, sans-serif" xmlns="http://www.w3.org/2000/svg" viewBox="-20 -20 1890 331"><defs /><defs><linearGradient id="edge-gradient-15803d-1d4ed8" gradientUnits="userSpaceOnUse" x1="1580" y1="170" x2="1650" y2="170"><stop offset="0%" stop-color="#15803d" /><stop offset="100%" stop-color="#1d4ed8" /></linearGradient><linearGradient id="edge-gradient-1d4ed8-d97706" gradientUnits="userSpaceOnUse" x1="500" y1="115" x2="570" y2="115"><stop offset="0%" stop-color="#1d4ed8" /><stop offset="100%" stop-color="#d97706" /></linearGradient><linearGradient id="edge-gradient-d97706-ea580c" gradientUnits="userSpaceOnUse" x1="770" y1="115" x2="840" y2="115"><stop offset="0%" stop-color="#d97706" /><stop offset="100%" stop-color="#ea580c" /></linearGradient><linearGradient id="edge-gradient-ea580c-7c3aed" gradientUnits="userSpaceOnUse" x1="1040" y1="115" x2="1110" y2="115"><stop offset="0%" stop-color="#ea580c" /><stop offset="100%" stop-color="#7c3aed" /></linearGradient><linearGradient id="edge-gradient-7c3aed-dc2626" gradientUnits="userSpaceOnUse" x1="1310" y1="115" x2="1380" y2="60"><stop offset="0%" stop-color="#7c3aed" /><stop offset="100%" stop-color="#dc2626" /></linearGradient><linearGradient id="edge-gradient-7c3aed-15803d" gradientUnits="userSpaceOnUse" x1="1310" y1="115" x2="1380" y2="170"><stop offset="0%" stop-color="#7c3aed" /><stop offset="100%" stop-color="#15803d" /></linearGradient><filter id="compact-shadow"><feDropShadow dx="0" dy="2" stdDeviation="2" flood-opacity="0.15" /></filter></defs><g id="infographic-container"><g transform="translate(624, 0)"><g transform="translate(214, 0)"><foreignObject height="35" width="174" y="0" x="0" overflow="visible"><span style="overflow:visible;color:#262626;font-size:24px;line-height:1.4;font-family:Arial, Helvetica, sans-serif;width:100%;height:100%;display:flex;flex-wrap:wrap;word-break:break-word;white-space:pre-wrap;text-align:center;justify-content:center;align-content:flex-start;align-items:flex-start" xmlns="http://www.w3.org/1999/xhtml">ranctl lifecycle</span></foreignObject></g><g transform="translate(0, 43)"><foreignObject height="48" width="602" y="0" x="0" overflow="visible"><span style="overflow:visible;color:#5a5a5a;font-size:16px;line-height:1.4;font-family:Arial, Helvetica, sans-serif;width:100%;height:100%;display:flex;flex-wrap:wrap;word-break:break-word;white-space:pre-wrap;text-align:center;justify-content:center;align-content:flex-start;align-items:flex-start" xmlns="http://www.w3.org/1999/xhtml">Evidence stays explicit and verify can branch to steady state or rollback.</span></foreignObject></g></g><g transform="translate(0, 91)"><g><path d="M 230 115 L 265 115 L 265 115 L 300 115" stroke="url(#edge-gradient-15803d-1d4ed8)" stroke-width="2" stroke-dasharray="" fill="none" /><polygon fill="#1d4ed8" stroke="#1d4ed8" stroke-width="1.6" points="300,115 290,120.5 290,109.5" /><path d="M 500 115 L 535 115 L 535 115 L 570 115" stroke="url(#edge-gradient-1d4ed8-d97706)" stroke-width="2" stroke-dasharray="" fill="none" /><polygon fill="#d97706" stroke="#d97706" stroke-width="1.6" points="570,115 560,120.5 560,109.5" /><path d="M 770 115 L 805 115 L 805 115 L 840 115" stroke="url(#edge-gradient-d97706-ea580c)" stroke-width="2" stroke-dasharray="" fill="none" /><polygon fill="#ea580c" stroke="#ea580c" stroke-width="1.6" points="840,115 830,120.5 830,109.5" /><path d="M 1040 115 L 1075 115 L 1075 115 L 1110 115" stroke="url(#edge-gradient-ea580c-7c3aed)" stroke-width="2" stroke-dasharray="" fill="none" /><polygon fill="#7c3aed" stroke="#7c3aed" stroke-width="1.6" points="1110,115 1100,120.5 1100,109.5" /><path d="M 1310 115 L 1333 115 Q 1345 115 1345 103 L 1345 72 Q 1345 60 1357 60 L 1380 60" stroke="url(#edge-gradient-7c3aed-dc2626)" stroke-width="2" stroke-dasharray="" fill="none" /><polygon fill="#dc2626" stroke="#dc2626" stroke-width="1.6" points="1380,60 1370,65.5 1370,54.5" /><path d="M 1310 115 L 1333 115 Q 1345 115 1345 127 L 1345 158 Q 1345 170 1357 170 L 1380 170" stroke="url(#edge-gradient-7c3aed-15803d)" stroke-width="2" stroke-dasharray="" fill="none" /><polygon fill="#15803d" stroke="#15803d" stroke-width="1.6" points="1380,170 1370,175.5 1370,164.5" /><path d="M 1580 170 L 1615 170 L 1615 170 L 1650 170" stroke="url(#edge-gradient-15803d-1d4ed8)" stroke-width="2" stroke-dasharray="" fill="none" /><polygon fill="#1d4ed8" stroke="#1d4ed8" stroke-width="1.6" points="1650,170 1640,175.5 1640,164.5" /></g><g><g transform="translate(30, 85)"><rect x="0" y="0" width="200" height="60" fill="#ffffff" stroke="#ffffff" stroke-width="1" rx="6" ry="6" filter="url(#compact-shadow)" /><rect x="0" y="0" width="3" height="60" fill="#15803d" rx="1.5" ry="1.5" /><g transform="translate(36, 8)"><g transform="translate(0, -0.5)"><g><foreignObject height="17" width="156" y="0" x="0" overflow="visible"><span style="overflow:visible;color:#262626;font-weight:bold;font-size:12px;line-height:1.4;font-family:Arial, Helvetica, sans-serif;width:100%;height:100%;display:flex;flex-wrap:wrap;word-break:break-word;white-space:pre-wrap;text-align:left;justify-content:flex-start;align-content:flex-start;align-items:flex-start" xmlns="http://www.w3.org/1999/xhtml">precheck</span></foreignObject></g></g><g transform="translate(0, 16.5)"><foreignObject height="28" width="156" y="0" x="0" overflow="visible"><span style="overflow:visible;color:#5a5a5a;font-size:10px;line-height:1.4;font-family:Arial, Helvetica, sans-serif;width:100%;height:100%;display:flex;flex-wrap:wrap;word-break:break-word;white-space:pre-wrap;text-align:left;justify-content:flex-start;align-content:center;align-items:center" xmlns="http://www.w3.org/1999/xhtml">Config, host, and policy</span></foreignObject></g></g></g><g transform="translate(300, 85)"><rect x="0" y="0" width="200" height="60" fill="#ffffff" stroke="#ffffff" stroke-width="1" rx="6" ry="6" filter="url(#compact-shadow)" /><rect x="0" y="0" width="3" height="60" fill="#1d4ed8" rx="1.5" ry="1.5" /><g transform="translate(36, 8)"><g transform="translate(0, -0.5)"><g><foreignObject height="17" width="156" y="0" x="0" overflow="visible"><span style="overflow:visible;color:#262626;font-weight:bold;font-size:12px;line-height:1.4;font-family:Arial, Helvetica, sans-serif;width:100%;height:100%;display:flex;flex-wrap:wrap;word-break:break-word;white-space:pre-wrap;text-align:left;justify-content:flex-start;align-content:flex-start;align-items:flex-start" xmlns="http://www.w3.org/1999/xhtml">plan</span></foreignObject></g></g><g transform="translate(0, 16.5)"><foreignObject height="28" width="156" y="0" x="0" overflow="visible"><span style="overflow:visible;color:#5a5a5a;font-size:10px;line-height:1.4;font-family:Arial, Helvetica, sans-serif;width:100%;height:100%;display:flex;flex-wrap:wrap;word-break:break-word;white-space:pre-wrap;text-align:left;justify-content:flex-start;align-content:center;align-items:center" xmlns="http://www.w3.org/1999/xhtml">Render changes and rollback target</span></foreignObject></g></g></g><g transform="translate(570, 85)"><rect x="0" y="0" width="200" height="60" fill="#ffffff" stroke="#ffffff" stroke-width="1" rx="6" ry="6" filter="url(#compact-shadow)" /><rect x="0" y="0" width="3" height="60" fill="#d97706" rx="1.5" ry="1.5" /><g transform="translate(36, 8)"><g transform="translate(0, -0.5)"><g><foreignObject height="17" width="156" y="0" x="0" overflow="visible"><span style="overflow:visible;color:#262626;font-weight:bold;font-size:12px;line-height:1.4;font-family:Arial, Helvetica, sans-serif;width:100%;height:100%;display:flex;flex-wrap:wrap;word-break:break-word;white-space:pre-wrap;text-align:left;justify-content:flex-start;align-content:flex-start;align-items:flex-start" xmlns="http://www.w3.org/1999/xhtml">approval</span></foreignObject></g></g><g transform="translate(0, 16.5)"><foreignObject height="28" width="156" y="0" x="0" overflow="visible"><span style="overflow:visible;color:#5a5a5a;font-size:10px;line-height:1.4;font-family:Arial, Helvetica, sans-serif;width:100%;height:100%;display:flex;flex-wrap:wrap;word-break:break-word;white-space:pre-wrap;text-align:left;justify-content:flex-start;align-content:center;align-items:center" xmlns="http://www.w3.org/1999/xhtml">Explicit operator gate</span></foreignObject></g></g></g><g transform="translate(840, 85)"><rect x="0" y="0" width="200" height="60" fill="#ffffff" stroke="#ffffff" stroke-width="1" rx="6" ry="6" filter="url(#compact-shadow)" /><rect x="0" y="0" width="3" height="60" fill="#ea580c" rx="1.5" ry="1.5" /><g transform="translate(36, 8)"><g transform="translate(0, -0.5)"><g><foreignObject height="17" width="156" y="0" x="0" overflow="visible"><span style="overflow:visible;color:#262626;font-weight:bold;font-size:12px;line-height:1.4;font-family:Arial, Helvetica, sans-serif;width:100%;height:100%;display:flex;flex-wrap:wrap;word-break:break-word;white-space:pre-wrap;text-align:left;justify-content:flex-start;align-content:flex-start;align-items:flex-start" xmlns="http://www.w3.org/1999/xhtml">apply</span></foreignObject></g></g><g transform="translate(0, 16.5)"><foreignObject height="28" width="156" y="0" x="0" overflow="visible"><span style="overflow:visible;color:#5a5a5a;font-size:10px;line-height:1.4;font-family:Arial, Helvetica, sans-serif;width:100%;height:100%;display:flex;flex-wrap:wrap;word-break:break-word;white-space:pre-wrap;text-align:left;justify-content:flex-start;align-content:center;align-items:center" xmlns="http://www.w3.org/1999/xhtml">Mutate runtime and persist state</span></foreignObject></g></g></g><g transform="translate(1110, 85)"><rect x="0" y="0" width="200" height="60" fill="#ffffff" stroke="#ffffff" stroke-width="1" rx="6" ry="6" filter="url(#compact-shadow)" /><rect x="0" y="0" width="3" height="60" fill="#7c3aed" rx="1.5" ry="1.5" /><g transform="translate(36, 8)"><g transform="translate(0, -0.5)"><g><foreignObject height="17" width="156" y="0" x="0" overflow="visible"><span style="overflow:visible;color:#262626;font-weight:bold;font-size:12px;line-height:1.4;font-family:Arial, Helvetica, sans-serif;width:100%;height:100%;display:flex;flex-wrap:wrap;word-break:break-word;white-space:pre-wrap;text-align:left;justify-content:flex-start;align-content:flex-start;align-items:flex-start" xmlns="http://www.w3.org/1999/xhtml">verify</span></foreignObject></g></g><g transform="translate(0, 16.5)"><foreignObject height="28" width="156" y="0" x="0" overflow="visible"><span style="overflow:visible;color:#5a5a5a;font-size:10px;line-height:1.4;font-family:Arial, Helvetica, sans-serif;width:100%;height:100%;display:flex;flex-wrap:wrap;word-break:break-word;white-space:pre-wrap;text-align:left;justify-content:flex-start;align-content:center;align-items:center" xmlns="http://www.w3.org/1999/xhtml">Health checks and signatures</span></foreignObject></g></g></g><g transform="translate(1380, 30)"><rect x="0" y="0" width="200" height="60" fill="#ffffff" stroke="#ffffff" stroke-width="1" rx="6" ry="6" filter="url(#compact-shadow)" /><rect x="0" y="0" width="3" height="60" fill="#dc2626" rx="1.5" ry="1.5" /><g transform="translate(36, 8)"><g transform="translate(0, -0.5)"><g><foreignObject height="17" width="156" y="0" x="0" overflow="visible"><span style="overflow:visible;color:#262626;font-weight:bold;font-size:12px;line-height:1.4;font-family:Arial, Helvetica, sans-serif;width:100%;height:100%;display:flex;flex-wrap:wrap;word-break:break-word;white-space:pre-wrap;text-align:left;justify-content:flex-start;align-content:flex-start;align-items:flex-start" xmlns="http://www.w3.org/1999/xhtml">observe</span></foreignObject></g></g><g transform="translate(0, 16.5)"><foreignObject height="28" width="156" y="0" x="0" overflow="visible"><span style="overflow:visible;color:#5a5a5a;font-size:10px;line-height:1.4;font-family:Arial, Helvetica, sans-serif;width:100%;height:100%;display:flex;flex-wrap:wrap;word-break:break-word;white-space:pre-wrap;text-align:left;justify-content:flex-start;align-content:center;align-items:center" xmlns="http://www.w3.org/1999/xhtml">Steady state dashboard surface</span></foreignObject></g></g></g><g transform="translate(1380, 140)"><rect x="0" y="0" width="200" height="60" fill="#ffffff" stroke="#ffffff" stroke-width="1" rx="6" ry="6" filter="url(#compact-shadow)" /><rect x="0" y="0" width="3" height="60" fill="#15803d" rx="1.5" ry="1.5" /><g transform="translate(36, 8)"><g transform="translate(0, -0.5)"><g><foreignObject height="17" width="156" y="0" x="0" overflow="visible"><span style="overflow:visible;color:#262626;font-weight:bold;font-size:12px;line-height:1.4;font-family:Arial, Helvetica, sans-serif;width:100%;height:100%;display:flex;flex-wrap:wrap;word-break:break-word;white-space:pre-wrap;text-align:left;justify-content:flex-start;align-content:flex-start;align-items:flex-start" xmlns="http://www.w3.org/1999/xhtml">capture-artifacts</span></foreignObject></g></g><g transform="translate(0, 16.5)"><foreignObject height="28" width="156" y="0" x="0" overflow="visible"><span style="overflow:visible;color:#5a5a5a;font-size:10px;line-height:1.4;font-family:Arial, Helvetica, sans-serif;width:100%;height:100%;display:flex;flex-wrap:wrap;word-break:break-word;white-space:pre-wrap;text-align:left;justify-content:flex-start;align-content:center;align-items:center" xmlns="http://www.w3.org/1999/xhtml">Logs, config, and evidence bundle</span></foreignObject></g></g></g><g transform="translate(1650, 140)"><rect x="0" y="0" width="200" height="60" fill="#ffffff" stroke="#ffffff" stroke-width="1" rx="6" ry="6" filter="url(#compact-shadow)" /><rect x="0" y="0" width="3" height="60" fill="#1d4ed8" rx="1.5" ry="1.5" /><g transform="translate(36, 8)"><g transform="translate(0, -0.5)"><g><foreignObject height="17" width="156" y="0" x="0" overflow="visible"><span style="overflow:visible;color:#262626;font-weight:bold;font-size:12px;line-height:1.4;font-family:Arial, Helvetica, sans-serif;width:100%;height:100%;display:flex;flex-wrap:wrap;word-break:break-word;white-space:pre-wrap;text-align:left;justify-content:flex-start;align-content:flex-start;align-items:flex-start" xmlns="http://www.w3.org/1999/xhtml">rollback</span></foreignObject></g></g><g transform="translate(0, 16.5)"><foreignObject height="28" width="156" y="0" x="0" overflow="visible"><span style="overflow:visible;color:#5a5a5a;font-size:10px;line-height:1.4;font-family:Arial, Helvetica, sans-serif;width:100%;height:100%;display:flex;flex-wrap:wrap;word-break:break-word;white-space:pre-wrap;text-align:left;justify-content:flex-start;align-content:center;align-items:center" xmlns="http://www.w3.org/1999/xhtml">Restore target then verify again</span></foreignObject></g></g></g></g></g></g></svg>
