<svg height="1251" width="1170" style="" font-family="Arial, Helvetica, sans-serif" xmlns="http://www.w3.org/2000/svg" viewBox="-20 -20 1170 1251"><defs /><defs><mask id="lifeline-mask-2411pdx-0" maskUnits="userSpaceOnUse" x="0" y="0" width="1130" height="1120"><rect x="0" y="0" width="1130" height="1120" fill="white" /><rect x="125" y="118" width="180" height="64" fill="black" /><rect x="125" y="238" width="180" height="64" fill="black" /><rect x="125" y="358" width="180" height="64" fill="black" /><rect x="125" y="478" width="180" height="64" fill="black" /></mask><mask id="lifeline-mask-2411pdx-1" maskUnits="userSpaceOnUse" x="0" y="0" width="1130" height="1120"><rect x="0" y="0" width="1130" height="1120" fill="white" /><rect x="475" y="598" width="180" height="64" fill="black" /><rect x="475" y="718" width="180" height="64" fill="black" /></mask><mask id="lifeline-mask-2411pdx-2" maskUnits="userSpaceOnUse" x="0" y="0" width="1130" height="1120"><rect x="0" y="0" width="1130" height="1120" fill="white" /><rect x="825" y="838" width="180" height="64" fill="black" /><rect x="825" y="958" width="180" height="64" fill="black" /></mask><linearGradient id="arrow-gradient-2411pdx-0" gradientUnits="userSpaceOnUse" x1="125" y1="165" x2="125" y2="255"><stop offset="0%" stop-color="#92400e" /><stop offset="100%" stop-color="#92400e" /></linearGradient><linearGradient id="arrow-gradient-2411pdx-1" gradientUnits="userSpaceOnUse" x1="125" y1="285" x2="125" y2="375"><stop offset="0%" stop-color="#92400e" /><stop offset="100%" stop-color="#92400e" /></linearGradient><linearGradient id="arrow-gradient-2411pdx-2" gradientUnits="userSpaceOnUse" x1="125" y1="405" x2="125" y2="495"><stop offset="0%" stop-color="#92400e" /><stop offset="100%" stop-color="#92400e" /></linearGradient><linearGradient id="arrow-gradient-2411pdx-3" gradientUnits="userSpaceOnUse" x1="305" y1="525" x2="475" y2="615"><stop offset="0%" stop-color="#92400e" /><stop offset="100%" stop-color="#d97706" /></linearGradient><linearGradient id="arrow-gradient-2411pdx-4" gradientUnits="userSpaceOnUse" x1="655" y1="645" x2="655" y2="735"><stop offset="0%" stop-color="#d97706" /><stop offset="100%" stop-color="#d97706" /></linearGradient><linearGradient id="arrow-gradient-2411pdx-5" gradientUnits="userSpaceOnUse" x1="655" y1="765" x2="825" y2="855"><stop offset="0%" stop-color="#d97706" /><stop offset="100%" stop-color="#0f766e" /></linearGradient><linearGradient id="arrow-gradient-2411pdx-6" gradientUnits="userSpaceOnUse" x1="1005" y1="885" x2="1005" y2="975"><stop offset="0%" stop-color="#0f766e" /><stop offset="100%" stop-color="#0f766e" /></linearGradient><filter id="compact-shadow"><feDropShadow dx="0" dy="2" stdDeviation="2" flood-opacity="0.15" /></filter></defs><g id="infographic-container"><g transform="translate(227.5, 0)"><g transform="translate(189.5, 0)"><foreignObject height="35" width="296" y="0" x="0" overflow="visible"><span style="overflow:visible;color:#262626;font-size:24px;line-height:1.4;font-family:Arial, Helvetica, sans-serif;width:100%;height:100%;display:flex;flex-wrap:wrap;word-break:break-word;white-space:pre-wrap;text-align:center;justify-content:center;align-content:flex-start;align-items:flex-start" xmlns="http://www.w3.org/1999/xhtml">Target-host deploy lanes</span></foreignObject></g><g transform="translate(0, 43)"><foreignObject height="48" width="675" y="0" x="0" overflow="visible"><span style="overflow:visible;color:#5a5a5a;font-size:16px;line-height:1.4;font-family:Arial, Helvetica, sans-serif;width:100%;height:100%;display:flex;flex-wrap:wrap;word-break:break-word;white-space:pre-wrap;text-align:center;justify-content:center;align-content:flex-start;align-items:flex-start" xmlns="http://www.w3.org/1999/xhtml">Local preview, remote execution, and fetched evidence stay in one operator loop.</span></foreignObject></g></g><g transform="translate(0, 91)"><rect x="0" y="0" width="1130" height="1120" fill="none" /><g><g transform="translate(125, 40)"><rect x="0" y="0" width="180" height="60" fill="#ffffff" stroke="#ffffff" stroke-width="1" rx="6" ry="6" filter="url(#compact-shadow)" /><rect x="0" y="0" width="3" height="60" fill="#92400e" rx="1.5" ry="1.5" /><g transform="translate(36, 8)"><g transform="translate(0, 13.5)"><g><foreignObject height="17" width="136" y="0" x="0" overflow="visible"><span style="overflow:visible;color:#262626;font-weight:bold;font-size:12px;line-height:1.4;font-family:Arial, Helvetica, sans-serif;width:100%;height:100%;display:flex;flex-wrap:wrap;word-break:break-word;white-space:pre-wrap;text-align:left;justify-content:flex-start;align-content:flex-start;align-items:flex-start" xmlns="http://www.w3.org/1999/xhtml">Local operator</span></foreignObject></g></g></g></g><g transform="translate(475, 40)"><rect x="0" y="0" width="180" height="60" fill="#ffffff" stroke="#ffffff" stroke-width="1" rx="6" ry="6" filter="url(#compact-shadow)" /><rect x="0" y="0" width="3" height="60" fill="#d97706" rx="1.5" ry="1.5" /><g transform="translate(36, 8)"><g transform="translate(0, 13.5)"><g><foreignObject height="17" width="136" y="0" x="0" overflow="visible"><span style="overflow:visible;color:#262626;font-weight:bold;font-size:12px;line-height:1.4;font-family:Arial, Helvetica, sans-serif;width:100%;height:100%;display:flex;flex-wrap:wrap;word-break:break-word;white-space:pre-wrap;text-align:left;justify-content:flex-start;align-content:flex-start;align-items:flex-start" xmlns="http://www.w3.org/1999/xhtml">Remote host</span></foreignObject></g></g></g></g><g transform="translate(825, 40)"><rect x="0" y="0" width="180" height="60" fill="#ffffff" stroke="#ffffff" stroke-width="1" rx="6" ry="6" filter="url(#compact-shadow)" /><rect x="0" y="0" width="3" height="60" fill="#0f766e" rx="1.5" ry="1.5" /><g transform="translate(36, 8)"><g transform="translate(0, 13.5)"><g><foreignObject height="17" width="136" y="0" x="0" overflow="visible"><span style="overflow:visible;color:#262626;font-weight:bold;font-size:12px;line-height:1.4;font-family:Arial, Helvetica, sans-serif;width:100%;height:100%;display:flex;flex-wrap:wrap;word-break:break-word;white-space:pre-wrap;text-align:left;justify-content:flex-start;align-content:flex-start;align-items:flex-start" xmlns="http://www.w3.org/1999/xhtml">Evidence loop</span></foreignObject></g></g></g></g><path d="M 215 100 L 215 1080" stroke="#5a5a5a" stroke-width="2" stroke-dasharray="5,5" fill="none" mask="url(#lifeline-mask-2411pdx-0)" /><polygon fill="#5a5a5a" stroke="#5a5a5a" stroke-width="1" points="215,1080 209.5,1070 220.5,1070" /><path d="M 565 100 L 565 1080" stroke="#5a5a5a" stroke-width="2" stroke-dasharray="5,5" fill="none" mask="url(#lifeline-mask-2411pdx-1)" /><polygon fill="#5a5a5a" stroke="#5a5a5a" stroke-width="1" points="565,1080 559.5,1070 570.5,1070" /><path d="M 915 100 L 915 1080" stroke="#5a5a5a" stroke-width="2" stroke-dasharray="5,5" fill="none" mask="url(#lifeline-mask-2411pdx-2)" /><polygon fill="#5a5a5a" stroke="#5a5a5a" stroke-width="1" points="915,1080 909.5,1070 920.5,1070" /><path d="M 125 165 C 85 165 85 255 125 255" stroke="url(#arrow-gradient-2411pdx-0)" stroke-width="2" fill="none" /><polygon fill="#92400e" stroke="#92400e" stroke-width="1.6" points="125,255 111,262.7 111,247.3" /><path d="M 125 285 C 85 285 85 375 125 375" stroke="url(#arrow-gradient-2411pdx-1)" stroke-width="2" fill="none" /><polygon fill="#92400e" stroke="#92400e" stroke-width="1.6" points="125,375 111,382.7 111,367.3" /><path d="M 125 405 C 85 405 85 495 125 495" stroke="url(#arrow-gradient-2411pdx-2)" stroke-width="2" fill="none" /><polygon fill="#92400e" stroke="#92400e" stroke-width="1.6" points="125,495 111,502.7 111,487.3" /><path d="M 305 525 L 475 615" stroke="url(#arrow-gradient-2411pdx-3)" stroke-width="2" fill="none" /><polygon fill="#d97706" stroke="#d97706" stroke-width="1.6" points="475,615 459.02423372391456,615.2547388700059 466.2297046183677,601.6444049582612" /><path d="M 655 645 C 695 645 695 735 655 735" stroke="url(#arrow-gradient-2411pdx-4)" stroke-width="2" fill="none" /><polygon fill="#d97706" stroke="#d97706" stroke-width="1.6" points="655,735 669,727.3 669,742.7" /><path d="M 655 765 L 825 855" stroke="url(#arrow-gradient-2411pdx-5)" stroke-width="2" fill="none" /><polygon fill="#0f766e" stroke="#0f766e" stroke-width="1.6" points="825,855 809.0242337239146,855.2547388700059 816.2297046183677,841.6444049582612" /><path d="M 1005 885 C 1045 885 1045 975 1005 975" stroke="url(#arrow-gradient-2411pdx-6)" stroke-width="2" fill="none" /><polygon fill="#0f766e" stroke="#0f766e" stroke-width="1.6" points="1005,975 1019,967.3 1019,982.7" /></g><g><g transform="translate(125, 120)"><rect x="0" y="0" width="180" height="60" fill="#ffffff" stroke="#ffffff" stroke-width="1" rx="6" ry="6" filter="url(#compact-shadow)" /><rect x="0" y="0" width="3" height="60" fill="#92400e" rx="1.5" ry="1.5" /><g transform="translate(36, 8)"><g transform="translate(0, 13.5)"><g><foreignObject height="17" width="136" y="0" x="0" overflow="visible"><span style="overflow:visible;color:#262626;font-weight:bold;font-size:12px;line-height:1.4;font-family:Arial, Helvetica, sans-serif;width:100%;height:100%;display:flex;flex-wrap:wrap;word-break:break-word;white-space:pre-wrap;text-align:left;justify-content:flex-start;align-content:flex-start;align-items:flex-start" xmlns="http://www.w3.org/1999/xhtml">package bundle</span></foreignObject></g></g></g></g><g transform="translate(125, 240)"><rect x="0" y="0" width="180" height="60" fill="#ffffff" stroke="#ffffff" stroke-width="1" rx="6" ry="6" filter="url(#compact-shadow)" /><rect x="0" y="0" width="3" height="60" fill="#92400e" rx="1.5" ry="1.5" /><g transform="translate(36, 8)"><g transform="translate(0, 13.5)"><g><foreignObject height="17" width="136" y="0" x="0" overflow="visible"><span style="overflow:visible;color:#262626;font-weight:bold;font-size:12px;line-height:1.4;font-family:Arial, Helvetica, sans-serif;width:100%;height:100%;display:flex;flex-wrap:wrap;word-break:break-word;white-space:pre-wrap;text-align:left;justify-content:flex-start;align-content:flex-start;align-items:flex-start" xmlns="http://www.w3.org/1999/xhtml">preview</span></foreignObject></g></g></g></g><g transform="translate(125, 360)"><rect x="0" y="0" width="180" height="60" fill="#ffffff" stroke="#ffffff" stroke-width="1" rx="6" ry="6" filter="url(#compact-shadow)" /><rect x="0" y="0" width="3" height="60" fill="#92400e" rx="1.5" ry="1.5" /><g transform="translate(36, 8)"><g transform="translate(0, 13.5)"><g><foreignObject height="17" width="136" y="0" x="0" overflow="visible"><span style="overflow:visible;color:#262626;font-weight:bold;font-size:12px;line-height:1.4;font-family:Arial, Helvetica, sans-serif;width:100%;height:100%;display:flex;flex-wrap:wrap;word-break:break-word;white-space:pre-wrap;text-align:left;justify-content:flex-start;align-content:flex-start;align-items:flex-start" xmlns="http://www.w3.org/1999/xhtml">readiness</span></foreignObject></g></g></g></g><g transform="translate(125, 480)"><rect x="0" y="0" width="180" height="60" fill="#ffffff" stroke="#ffffff" stroke-width="1" rx="6" ry="6" filter="url(#compact-shadow)" /><rect x="0" y="0" width="3" height="60" fill="#92400e" rx="1.5" ry="1.5" /><g transform="translate(36, 8)"><g transform="translate(0, 13.5)"><g><foreignObject height="17" width="136" y="0" x="0" overflow="visible"><span style="overflow:visible;color:#262626;font-weight:bold;font-size:12px;line-height:1.4;font-family:Arial, Helvetica, sans-serif;width:100%;height:100%;display:flex;flex-wrap:wrap;word-break:break-word;white-space:pre-wrap;text-align:left;justify-content:flex-start;align-content:flex-start;align-items:flex-start" xmlns="http://www.w3.org/1999/xhtml">ship bundle</span></foreignObject></g></g></g></g><g transform="translate(475, 600)"><rect x="0" y="0" width="180" height="60" fill="#ffffff" stroke="#ffffff" stroke-width="1" rx="6" ry="6" filter="url(#compact-shadow)" /><rect x="0" y="0" width="3" height="60" fill="#d97706" rx="1.5" ry="1.5" /><g transform="translate(36, 8)"><g transform="translate(0, 13.5)"><g><foreignObject height="17" width="136" y="0" x="0" overflow="visible"><span style="overflow:visible;color:#262626;font-weight:bold;font-size:12px;line-height:1.4;font-family:Arial, Helvetica, sans-serif;width:100%;height:100%;display:flex;flex-wrap:wrap;word-break:break-word;white-space:pre-wrap;text-align:left;justify-content:flex-start;align-content:flex-start;align-items:flex-start" xmlns="http://www.w3.org/1999/xhtml">remote preflight</span></foreignObject></g></g></g></g><g transform="translate(475, 720)"><rect x="0" y="0" width="180" height="60" fill="#ffffff" stroke="#ffffff" stroke-width="1" rx="6" ry="6" filter="url(#compact-shadow)" /><rect x="0" y="0" width="3" height="60" fill="#d97706" rx="1.5" ry="1.5" /><g transform="translate(36, 8)"><g transform="translate(0, 13.5)"><g><foreignObject height="17" width="136" y="0" x="0" overflow="visible"><span style="overflow:visible;color:#262626;font-weight:bold;font-size:12px;line-height:1.4;font-family:Arial, Helvetica, sans-serif;width:100%;height:100%;display:flex;flex-wrap:wrap;word-break:break-word;white-space:pre-wrap;text-align:left;justify-content:flex-start;align-content:flex-start;align-items:flex-start" xmlns="http://www.w3.org/1999/xhtml">remote ranctl</span></foreignObject></g></g></g></g><g transform="translate(825, 840)"><rect x="0" y="0" width="180" height="60" fill="#ffffff" stroke="#ffffff" stroke-width="1" rx="6" ry="6" filter="url(#compact-shadow)" /><rect x="0" y="0" width="3" height="60" fill="#0f766e" rx="1.5" ry="1.5" /><g transform="translate(36, 8)"><g transform="translate(0, 13.5)"><g><foreignObject height="17" width="136" y="0" x="0" overflow="visible"><span style="overflow:visible;color:#262626;font-weight:bold;font-size:12px;line-height:1.4;font-family:Arial, Helvetica, sans-serif;width:100%;height:100%;display:flex;flex-wrap:wrap;word-break:break-word;white-space:pre-wrap;text-align:left;justify-content:flex-start;align-content:flex-start;align-items:flex-start" xmlns="http://www.w3.org/1999/xhtml">fetchback</span></foreignObject></g></g></g></g><g transform="translate(825, 960)"><rect x="0" y="0" width="180" height="60" fill="#ffffff" stroke="#ffffff" stroke-width="1" rx="6" ry="6" filter="url(#compact-shadow)" /><rect x="0" y="0" width="3" height="60" fill="#0f766e" rx="1.5" ry="1.5" /><g transform="translate(36, 8)"><g transform="translate(0, 13.5)"><g><foreignObject height="17" width="136" y="0" x="0" overflow="visible"><span style="overflow:visible;color:#262626;font-weight:bold;font-size:12px;line-height:1.4;font-family:Arial, Helvetica, sans-serif;width:100%;height:100%;display:flex;flex-wrap:wrap;word-break:break-word;white-space:pre-wrap;text-align:left;justify-content:flex-start;align-content:flex-start;align-items:flex-start" xmlns="http://www.w3.org/1999/xhtml">dashboard</span></foreignObject></g></g></g></g></g></g></g></svg>
