<svg xmlns="http://www.w3.org/2000/svg" viewBox="0 0 32 32" role="img" aria-labelledby="title desc" shape-rendering="crispEdges">
  <title id="title">Open RAN Agent logo 32x32</title>
  <desc id="desc">A 32 by 32 pixel logo for Open RAN Agent.</desc>

  <g fill="#e7f7ff" opacity="0.95">
    <rect x="10" y="3" width="1" height="1"/>
    <rect x="22" y="4" width="1" height="1"/>
    <rect x="4" y="21" width="1" height="1"/>
    <rect x="27" y="22" width="1" height="1"/>
    <rect x="6" y="25" width="1" height="1"/>
    <rect x="25" y="26" width="1" height="1"/>
  </g>

  <g fill="#4eb6ff" opacity="0.95">
    <g>
      <rect x="7" y="5" width="1" height="1"/>
      <rect x="6" y="6" width="1" height="2"/>
      <rect x="5" y="8" width="1" height="3"/>
      <rect x="4" y="11" width="1" height="3"/>
      <rect x="5" y="14" width="1" height="3"/>
      <rect x="6" y="17" width="1" height="2"/>
      <rect x="7" y="19" width="1" height="1"/>
    </g>
    <g transform="translate(32 0) scale(-1 1)">
      <rect x="7" y="5" width="1" height="1"/>
      <rect x="6" y="6" width="1" height="2"/>
      <rect x="5" y="8" width="1" height="3"/>
      <rect x="4" y="11" width="1" height="3"/>
      <rect x="5" y="14" width="1" height="3"/>
      <rect x="6" y="17" width="1" height="2"/>
      <rect x="7" y="19" width="1" height="1"/>
    </g>
  </g>

  <g fill="#8be0ff" opacity="0.95">
    <g>
      <rect x="9" y="7" width="1" height="1"/>
      <rect x="8" y="8" width="1" height="2"/>
      <rect x="7" y="10" width="1" height="5"/>
      <rect x="8" y="15" width="1" height="2"/>
      <rect x="9" y="17" width="1" height="1"/>
    </g>
    <g transform="translate(32 0) scale(-1 1)">
      <rect x="9" y="7" width="1" height="1"/>
      <rect x="8" y="8" width="1" height="2"/>
      <rect x="7" y="10" width="1" height="5"/>
      <rect x="8" y="15" width="1" height="2"/>
      <rect x="9" y="17" width="1" height="1"/>
    </g>
  </g>

  <g fill="#ffc857">
    <rect x="14" y="2" width="4" height="2"/>
  </g>

  <g fill="#ffe08a">
    <rect x="15" y="2" width="2" height="1"/>
  </g>

  <g fill="#d8e6f4" opacity="0.9">
    <rect x="11" y="27" width="10" height="1"/>
    <rect x="12" y="28" width="8" height="1"/>
  </g>

  <g fill="#8fe3c0">
    <rect x="12" y="9" width="8" height="1"/>
    <rect x="10" y="10" width="12" height="1"/>
    <rect x="9" y="11" width="14" height="10"/>
    <rect x="10" y="21" width="12" height="1"/>
    <rect x="11" y="22" width="10" height="1"/>
    <rect x="13" y="23" width="2" height="3"/>
    <rect x="17" y="23" width="2" height="3"/>
    <rect x="12" y="26" width="3" height="1"/>
    <rect x="17" y="26" width="3" height="1"/>
  </g>

  <g fill="#63d4b2">
    <rect x="10" y="18" width="12" height="3"/>
    <rect x="11" y="21" width="10" height="1"/>
    <rect x="15" y="22" width="2" height="2"/>
  </g>

  <g fill="#eafcff">
    <rect x="12" y="12" width="8" height="1"/>
    <rect x="11" y="13" width="10" height="5"/>
    <rect x="12" y="18" width="8" height="1"/>
  </g>

  <g fill="#ffffff">
    <rect x="12" y="13" width="2" height="1"/>
    <rect x="11" y="14" width="1" height="1"/>
  </g>

  <g fill="#ff9db1">
    <rect x="12" y="16" width="1" height="1"/>
    <rect x="19" y="16" width="1" height="1"/>
  </g>

  <g fill="#4eb6ff">
    <rect x="13" y="19" width="1" height="1"/>
    <rect x="15" y="18" width="1" height="2"/>
    <rect x="17" y="19" width="1" height="1"/>
  </g>

  <g fill="#24324a">
    <rect x="15" y="4" width="2" height="5"/>
    <rect x="12" y="8" width="8" height="1"/>
    <rect x="10" y="9" width="2" height="1"/>
    <rect x="20" y="9" width="2" height="1"/>
    <rect x="9" y="10" width="1" height="1"/>
    <rect x="22" y="10" width="1" height="1"/>
    <rect x="8" y="11" width="1" height="10"/>
    <rect x="23" y="11" width="1" height="10"/>
    <rect x="9" y="21" width="1" height="1"/>
    <rect x="22" y="21" width="1" height="1"/>
    <rect x="10" y="22" width="1" height="1"/>
    <rect x="21" y="22" width="1" height="1"/>
    <rect x="11" y="23" width="2" height="1"/>
    <rect x="19" y="23" width="2" height="1"/>
    <rect x="12" y="24" width="1" height="2"/>
    <rect x="15" y="24" width="1" height="2"/>
    <rect x="16" y="24" width="1" height="2"/>
    <rect x="19" y="24" width="1" height="2"/>
    <rect x="12" y="26" width="3" height="1"/>
    <rect x="17" y="26" width="3" height="1"/>
    <rect x="13" y="14" width="2" height="2"/>
    <rect x="17" y="14" width="2" height="2"/>
    <rect x="14" y="17" width="1" height="1"/>
    <rect x="15" y="18" width="2" height="1"/>
    <rect x="17" y="17" width="1" height="1"/>
  </g>
</svg>
