<svg xmlns="http://www.w3.org/2000/svg" viewBox="0 0 16 16" role="img" aria-labelledby="title desc" shape-rendering="crispEdges">
  <title id="title">Open RAN Agent logo 16x16</title>
  <desc id="desc">A compact 16 by 16 pixel logo for Open RAN Agent.</desc>

  <g fill="#4eb6ff">
    <rect x="2" y="2" width="1" height="1"/>
    <rect x="1" y="3" width="1" height="2"/>
    <rect x="0" y="5" width="1" height="2"/>
    <rect x="1" y="7" width="1" height="2"/>
    <rect x="2" y="9" width="1" height="1"/>

    <rect x="13" y="2" width="1" height="1"/>
    <rect x="14" y="3" width="1" height="2"/>
    <rect x="15" y="5" width="1" height="2"/>
    <rect x="14" y="7" width="1" height="2"/>
    <rect x="13" y="9" width="1" height="1"/>
  </g>

  <g fill="#8be0ff">
    <rect x="4" y="4" width="1" height="1"/>
    <rect x="3" y="5" width="1" height="2"/>
    <rect x="4" y="7" width="1" height="1"/>

    <rect x="11" y="4" width="1" height="1"/>
    <rect x="12" y="5" width="1" height="2"/>
    <rect x="11" y="7" width="1" height="1"/>
  </g>

  <g fill="#ffc857">
    <rect x="7" y="0" width="2" height="1"/>
  </g>

  <g fill="#24324a">
    <rect x="7" y="1" width="2" height="3"/>
    <rect x="5" y="4" width="6" height="1"/>
    <rect x="4" y="5" width="1" height="6"/>
    <rect x="11" y="5" width="1" height="6"/>
    <rect x="5" y="11" width="6" height="1"/>
    <rect x="6" y="12" width="1" height="2"/>
    <rect x="9" y="12" width="1" height="2"/>
    <rect x="5" y="14" width="3" height="1"/>
    <rect x="8" y="14" width="3" height="1"/>
  </g>

  <g fill="#8fe3c0">
    <rect x="5" y="5" width="6" height="6"/>
    <rect x="6" y="12" width="1" height="2"/>
    <rect x="9" y="12" width="1" height="2"/>
    <rect x="5" y="14" width="3" height="1"/>
    <rect x="8" y="14" width="3" height="1"/>
  </g>

  <g fill="#eafcff">
    <rect x="6" y="6" width="4" height="3"/>
  </g>

  <g fill="#ff9db1">
    <rect x="5" y="8" width="1" height="1"/>
    <rect x="10" y="8" width="1" height="1"/>
  </g>

  <g fill="#24324a">
    <rect x="6" y="7" width="1" height="1"/>
    <rect x="9" y="7" width="1" height="1"/>
    <rect x="7" y="8" width="2" height="1"/>
  </g>
</svg>
