<svg height="991" width="943" style="" font-family="Arial, Helvetica, sans-serif" xmlns="http://www.w3.org/2000/svg" viewBox="-20 -20 943 991"><defs /><defs><linearGradient id="edge-gradient-0f766e-1d4ed8" gradientUnits="userSpaceOnUse" x1="130" y1="110" x2="130" y2="180"><stop offset="0%" stop-color="#0f766e" /><stop offset="100%" stop-color="#1d4ed8" /></linearGradient><linearGradient id="edge-gradient-1d4ed8-ea580c" gradientUnits="userSpaceOnUse" x1="505" y1="710" x2="505" y2="780"><stop offset="0%" stop-color="#1d4ed8" /><stop offset="100%" stop-color="#ea580c" /></linearGradient><linearGradient id="edge-gradient-0f172a-ea580c" gradientUnits="userSpaceOnUse" x1="380" y1="260" x2="255" y2="330"><stop offset="0%" stop-color="#0f172a" /><stop offset="100%" stop-color="#ea580c" /></linearGradient><linearGradient id="edge-gradient-ea580c-475569" gradientUnits="userSpaceOnUse" x1="255" y1="410" x2="130" y2="480"><stop offset="0%" stop-color="#ea580c" /><stop offset="100%" stop-color="#475569" /></linearGradient><linearGradient id="edge-gradient-ea580c-7c3aed" gradientUnits="userSpaceOnUse" x1="255" y1="410" x2="380" y2="480"><stop offset="0%" stop-color="#ea580c" /><stop offset="100%" stop-color="#7c3aed" /></linearGradient><linearGradient id="edge-gradient-7c3aed-0f766e" gradientUnits="userSpaceOnUse" x1="380" y1="560" x2="255" y2="630"><stop offset="0%" stop-color="#7c3aed" /><stop offset="100%" stop-color="#0f766e" /></linearGradient><linearGradient id="edge-gradient-7c3aed-1d4ed8" gradientUnits="userSpaceOnUse" x1="380" y1="560" x2="505" y2="630"><stop offset="0%" stop-color="#7c3aed" /><stop offset="100%" stop-color="#1d4ed8" /></linearGradient><linearGradient id="edge-gradient-0f766e-0f172a" gradientUnits="userSpaceOnUse" x1="255" y1="710" x2="255" y2="780"><stop offset="0%" stop-color="#0f766e" /><stop offset="100%" stop-color="#0f172a" /></linearGradient><radialGradient id="#0f766e-badge" cx="50%" cy="50%" r="50%"><stop offset="0%" stop-color="#0f766e" /><stop offset="100%" stop-color="#031b1a" /></radialGradient><radialGradient id="#1d4ed8-badge" cx="50%" cy="50%" r="50%"><stop offset="0%" stop-color="#1d4ed8" /><stop offset="100%" stop-color="#112e7e" /></radialGradient><radialGradient id="#0f172a-badge" cx="50%" cy="50%" r="50%"><stop offset="0%" stop-color="#0f172a" /><stop offset="100%" stop-color="#000000" /></radialGradient><radialGradient id="#ea580c-badge" cx="50%" cy="50%" r="50%"><stop offset="0%" stop-color="#ea580c" /><stop offset="100%" stop-color="#893407" /></radialGradient><radialGradient id="#475569-badge" cx="50%" cy="50%" r="50%"><stop offset="0%" stop-color="#475569" /><stop offset="100%" stop-color="#1e242c" /></radialGradient><radialGradient id="#7c3aed-badge" cx="50%" cy="50%" r="50%"><stop offset="0%" stop-color="#7c3aed" /><stop offset="100%" stop-color="#4b10b1" /></radialGradient></defs><g id="doc-panel-background"><rect x="-9" y="-9" width="921" height="969" rx="30" ry="30" fill="#fcfcfd" stroke="#cbd5e1" stroke-width="1.25" /></g><g id="infographic-container"><g><g transform="translate(257.5, 0)"><foreignObject height="35" width="388" y="0" x="0" overflow="visible"><span style="overflow:visible;color:#262626;font-size:24px;line-height:1.4;font-family:Arial, Helvetica, sans-serif;width:100%;height:100%;display:flex;flex-wrap:wrap;word-break:break-word;white-space:pre-wrap;text-align:center;justify-content:center;align-content:flex-start;align-items:flex-start" xmlns="http://www.w3.org/1999/xhtml">External context and boundaries</span></foreignObject></g><g transform="translate(0, 43)"><foreignObject height="48" width="903" y="0" x="0" overflow="visible"><span style="overflow:visible;color:#5a5a5a;font-size:16px;line-height:1.4;font-family:Arial, Helvetica, sans-serif;width:100%;height:100%;display:flex;flex-wrap:wrap;word-break:break-word;white-space:pre-wrap;text-align:center;justify-content:center;align-content:flex-start;align-items:flex-start" xmlns="http://www.w3.org/1999/xhtml">Operator orchestration stays above BEAM services, while southbound runtime crosses a strict native boundary.</span></foreignObject></g></g><g transform="translate(149, 91)"><g><path d="M 130 110 L 130 145 L 130 145 L 130 180" stroke="url(#edge-gradient-0f766e-1d4ed8)" stroke-width="2" stroke-dasharray="" fill="none" /><polygon fill="#1d4ed8" stroke="#1d4ed8" stroke-width="1.6" points="130,180 124.5,170 135.5,170" /><path d="M 130 260 L 130 283 Q 130 295 142 295 L 243 295 Q 255 295 255 307 L 255 330" stroke="url(#edge-gradient-1d4ed8-ea580c)" stroke-width="2" stroke-dasharray="" fill="none" /><polygon fill="#ea580c" stroke="#ea580c" stroke-width="1.6" points="255,330 249.5,320 260.5,320" /><path d="M 380 260 L 380 283 Q 380 295 368 295 L 267 295 Q 255 295 255 307 L 255 330" stroke="url(#edge-gradient-0f172a-ea580c)" stroke-width="2" stroke-dasharray="" fill="none" /><polygon fill="#ea580c" stroke="#ea580c" stroke-width="1.6" points="255,330 249.5,320 260.5,320" /><path d="M 255 410 L 255 433 Q 255 445 243 445 L 142 445 Q 130 445 130 457 L 130 480" stroke="url(#edge-gradient-ea580c-475569)" stroke-width="2" stroke-dasharray="" fill="none" /><polygon fill="#475569" stroke="#475569" stroke-width="1.6" points="130,480 124.5,470 135.5,470" /><path d="M 255 410 L 255 433 Q 255 445 267 445 L 368 445 Q 380 445 380 457 L 380 480" stroke="url(#edge-gradient-ea580c-7c3aed)" stroke-width="2" stroke-dasharray="" fill="none" /><polygon fill="#7c3aed" stroke="#7c3aed" stroke-width="1.6" points="380,480 374.5,470 385.5,470" /><path d="M 380 560 L 380 583 Q 380 595 368 595 L 267 595 Q 255 595 255 607 L 255 630" stroke="url(#edge-gradient-7c3aed-0f766e)" stroke-width="2" stroke-dasharray="" fill="none" /><polygon fill="#0f766e" stroke="#0f766e" stroke-width="1.6" points="255,630 249.5,620 260.5,620" /><path d="M 380 560 L 380 583 Q 380 595 392 595 L 493 595 Q 505 595 505 607 L 505 630" stroke="url(#edge-gradient-7c3aed-1d4ed8)" stroke-width="2" stroke-dasharray="" fill="none" /><polygon fill="#1d4ed8" stroke="#1d4ed8" stroke-width="1.6" points="505,630 499.5,620 510.5,620" /><path d="M 255 710 L 255 745 L 255 745 L 255 780" stroke="url(#edge-gradient-0f766e-0f172a)" stroke-width="2" stroke-dasharray="" fill="none" /><polygon fill="#0f172a" stroke="#0f172a" stroke-width="1.6" points="255,780 249.5,770 260.5,770" /><path d="M 505 710 L 505 745 L 505 745 L 505 780" stroke="url(#edge-gradient-1d4ed8-ea580c)" stroke-width="2" stroke-dasharray="" fill="none" /><polygon fill="#ea580c" stroke="#ea580c" stroke-width="1.6" points="505,780 499.5,770 510.5,770" /></g><g><g transform="translate(30, 30)"><rect x="0" y="0" width="200" height="80" fill="#0f766e1a" rx="8" ry="8" /><g transform="translate(8, 8)"><g transform="translate(0, 10)"><foreignObject height="20" width="184" y="0" x="0" overflow="visible"><span style="overflow:visible;color:#262626;font-weight:bold;font-size:14px;line-height:1.4;font-family:Arial, Helvetica, sans-serif;width:100%;height:100%;display:flex;flex-wrap:wrap;word-break:break-word;white-space:pre-wrap;text-align:center;justify-content:center;align-content:center;align-items:center" xmlns="http://www.w3.org/1999/xhtml">Operations engineer</span></foreignObject></g></g><g transform="translate(8, 48)"><foreignObject height="27" width="184" y="0" x="0" overflow="visible"><span style="overflow:visible;color:#5a5a5a;font-size:11px;line-height:1.2;font-family:Arial, Helvetica, sans-serif;width:100%;height:100%;display:flex;flex-wrap:wrap;word-break:break-word;white-space:pre-wrap;text-align:center;justify-content:center;align-content:flex-start;align-items:flex-start" xmlns="http://www.w3.org/1999/xhtml">Human operator</span></foreignObject></g></g><g transform="translate(30, 180)"><rect x="0" y="0" width="200" height="80" fill="#1d4ed81a" rx="8" ry="8" /><g transform="translate(8, 8)"><g transform="translate(0, 10)"><foreignObject height="20" width="184" y="0" x="0" overflow="visible"><span style="overflow:visible;color:#262626;font-weight:bold;font-size:14px;line-height:1.4;font-family:Arial, Helvetica, sans-serif;width:100%;height:100%;display:flex;flex-wrap:wrap;word-break:break-word;white-space:pre-wrap;text-align:center;justify-content:center;align-content:center;align-items:center" xmlns="http://www.w3.org/1999/xhtml">Symphony / Codex / skills</span></foreignObject></g></g><g transform="translate(8, 48)"><foreignObject height="27" width="184" y="0" x="0" overflow="visible"><span style="overflow:visible;color:#5a5a5a;font-size:11px;line-height:1.2;font-family:Arial, Helvetica, sans-serif;width:100%;height:100%;display:flex;flex-wrap:wrap;word-break:break-word;white-space:pre-wrap;text-align:center;justify-content:center;align-content:flex-start;align-items:flex-start" xmlns="http://www.w3.org/1999/xhtml">Workflow and reasoning layer</span></foreignObject></g></g><g transform="translate(280, 180)"><rect x="0" y="0" width="200" height="80" fill="#0f172a1a" rx="8" ry="8" /><g transform="translate(8, 8)"><g transform="translate(0, 10)"><foreignObject height="20" width="184" y="0" x="0" overflow="visible"><span style="overflow:visible;color:#262626;font-weight:bold;font-size:14px;line-height:1.4;font-family:Arial, Helvetica, sans-serif;width:100%;height:100%;display:flex;flex-wrap:wrap;word-break:break-word;white-space:pre-wrap;text-align:center;justify-content:center;align-content:center;align-items:center" xmlns="http://www.w3.org/1999/xhtml">5G Core</span></foreignObject></g></g><g transform="translate(8, 48)"><foreignObject height="27" width="184" y="0" x="0" overflow="visible"><span style="overflow:visible;color:#5a5a5a;font-size:11px;line-height:1.2;font-family:Arial, Helvetica, sans-serif;width:100%;height:100%;display:flex;flex-wrap:wrap;word-break:break-word;white-space:pre-wrap;text-align:center;justify-content:center;align-content:flex-start;align-items:flex-start" xmlns="http://www.w3.org/1999/xhtml">External core network</span></foreignObject></g></g><g transform="translate(155, 330)"><rect x="0" y="0" width="200" height="80" fill="#ea580c1a" rx="8" ry="8" /><g transform="translate(8, 8)"><g transform="translate(0, 10)"><foreignObject height="20" width="184" y="0" x="0" overflow="visible"><span style="overflow:visible;color:#262626;font-weight:bold;font-size:14px;line-height:1.4;font-family:Arial, Helvetica, sans-serif;width:100%;height:100%;display:flex;flex-wrap:wrap;word-break:break-word;white-space:pre-wrap;text-align:center;justify-content:center;align-content:center;align-items:center" xmlns="http://www.w3.org/1999/xhtml">CU-CP / CU-UP / DU-high</span></foreignObject></g></g><g transform="translate(8, 48)"><foreignObject height="27" width="184" y="0" x="0" overflow="visible"><span style="overflow:visible;color:#5a5a5a;font-size:11px;line-height:1.2;font-family:Arial, Helvetica, sans-serif;width:100%;height:100%;display:flex;flex-wrap:wrap;word-break:break-word;white-space:pre-wrap;text-align:center;justify-content:center;align-content:flex-start;align-items:flex-start" xmlns="http://www.w3.org/1999/xhtml">BEAM services</span></foreignObject></g></g><g transform="translate(30, 480)"><rect x="0" y="0" width="200" height="80" fill="#4755691a" rx="8" ry="8" /><g transform="translate(8, 8)"><g transform="translate(0, 10)"><foreignObject height="20" width="184" y="0" x="0" overflow="visible"><span style="overflow:visible;color:#262626;font-weight:bold;font-size:14px;line-height:1.4;font-family:Arial, Helvetica, sans-serif;width:100%;height:100%;display:flex;flex-wrap:wrap;word-break:break-word;white-space:pre-wrap;text-align:center;justify-content:center;align-content:center;align-items:center" xmlns="http://www.w3.org/1999/xhtml">Artifacts</span></foreignObject></g></g><g transform="translate(8, 48)"><foreignObject height="27" width="184" y="0" x="0" overflow="visible"><span style="overflow:visible;color:#5a5a5a;font-size:11px;line-height:1.2;font-family:Arial, Helvetica, sans-serif;width:100%;height:100%;display:flex;flex-wrap:wrap;word-break:break-word;white-space:pre-wrap;text-align:center;justify-content:center;align-content:flex-start;align-items:flex-start" xmlns="http://www.w3.org/1999/xhtml">Evidence and captured outputs</span></foreignObject></g></g><g transform="translate(280, 480)"><rect x="0" y="0" width="200" height="80" fill="#7c3aed1a" rx="8" ry="8" /><g transform="translate(8, 8)"><g transform="translate(0, 10)"><foreignObject height="20" width="184" y="0" x="0" overflow="visible"><span style="overflow:visible;color:#262626;font-weight:bold;font-size:14px;line-height:1.4;font-family:Arial, Helvetica, sans-serif;width:100%;height:100%;display:flex;flex-wrap:wrap;word-break:break-word;white-space:pre-wrap;text-align:center;justify-content:center;align-content:center;align-items:center" xmlns="http://www.w3.org/1999/xhtml">fapi_rt_gateway</span></foreignObject></g></g><g transform="translate(8, 48)"><foreignObject height="27" width="184" y="0" x="0" overflow="visible"><span style="overflow:visible;color:#5a5a5a;font-size:11px;line-height:1.2;font-family:Arial, Helvetica, sans-serif;width:100%;height:100%;display:flex;flex-wrap:wrap;word-break:break-word;white-space:pre-wrap;text-align:center;justify-content:center;align-content:flex-start;align-items:flex-start" xmlns="http://www.w3.org/1999/xhtml">Native Port sidecar</span></foreignObject></g></g><g transform="translate(155, 630)"><rect x="0" y="0" width="200" height="80" fill="#0f766e1a" rx="8" ry="8" /><g transform="translate(8, 8)"><g transform="translate(0, 10)"><foreignObject height="20" width="184" y="0" x="0" overflow="visible"><span style="overflow:visible;color:#262626;font-weight:bold;font-size:14px;line-height:1.4;font-family:Arial, Helvetica, sans-serif;width:100%;height:100%;display:flex;flex-wrap:wrap;word-break:break-word;white-space:pre-wrap;text-align:center;justify-content:center;align-content:center;align-items:center" xmlns="http://www.w3.org/1999/xhtml">local_du_low adapter</span></foreignObject></g></g><g transform="translate(8, 48)"><foreignObject height="27" width="184" y="0" x="0" overflow="visible"><span style="overflow:visible;color:#5a5a5a;font-size:11px;line-height:1.2;font-family:Arial, Helvetica, sans-serif;width:100%;height:100%;display:flex;flex-wrap:wrap;word-break:break-word;white-space:pre-wrap;text-align:center;justify-content:center;align-content:flex-start;align-items:flex-start" xmlns="http://www.w3.org/1999/xhtml">Repository-owned local profile</span></foreignObject></g></g><g transform="translate(405, 630)"><rect x="0" y="0" width="200" height="80" fill="#1d4ed81a" rx="8" ry="8" /><g transform="translate(8, 8)"><g transform="translate(0, 10)"><foreignObject height="20" width="184" y="0" x="0" overflow="visible"><span style="overflow:visible;color:#262626;font-weight:bold;font-size:14px;line-height:1.4;font-family:Arial, Helvetica, sans-serif;width:100%;height:100%;display:flex;flex-wrap:wrap;word-break:break-word;white-space:pre-wrap;text-align:center;justify-content:center;align-content:center;align-items:center" xmlns="http://www.w3.org/1999/xhtml">aerial adapter</span></foreignObject></g></g><g transform="translate(8, 48)"><foreignObject height="27" width="184" y="0" x="0" overflow="visible"><span style="overflow:visible;color:#5a5a5a;font-size:11px;line-height:1.2;font-family:Arial, Helvetica, sans-serif;width:100%;height:100%;display:flex;flex-wrap:wrap;word-break:break-word;white-space:pre-wrap;text-align:center;justify-content:center;align-content:flex-start;align-items:flex-start" xmlns="http://www.w3.org/1999/xhtml">Future vendor-facing profile</span></foreignObject></g></g><g transform="translate(155, 780)"><rect x="0" y="0" width="200" height="80" fill="#0f172a1a" rx="8" ry="8" /><g transform="translate(8, 8)"><g transform="translate(0, 10)"><foreignObject height="20" width="184" y="0" x="0" overflow="visible"><span style="overflow:visible;color:#262626;font-weight:bold;font-size:14px;line-height:1.4;font-family:Arial, Helvetica, sans-serif;width:100%;height:100%;display:flex;flex-wrap:wrap;word-break:break-word;white-space:pre-wrap;text-align:center;justify-content:center;align-content:center;align-items:center" xmlns="http://www.w3.org/1999/xhtml">RU-side low-PHY</span></foreignObject></g></g><g transform="translate(8, 48)"><foreignObject height="27" width="184" y="0" x="0" overflow="visible"><span style="overflow:visible;color:#5a5a5a;font-size:11px;line-height:1.2;font-family:Arial, Helvetica, sans-serif;width:100%;height:100%;display:flex;flex-wrap:wrap;word-break:break-word;white-space:pre-wrap;text-align:center;justify-content:center;align-content:flex-start;align-items:flex-start" xmlns="http://www.w3.org/1999/xhtml">External low-PHY path</span></foreignObject></g></g><g transform="translate(405, 780)"><rect x="0" y="0" width="200" height="80" fill="#ea580c1a" rx="8" ry="8" /><g transform="translate(8, 8)"><g transform="translate(0, 10)"><foreignObject height="20" width="184" y="0" x="0" overflow="visible"><span style="overflow:visible;color:#262626;font-weight:bold;font-size:14px;line-height:1.4;font-family:Arial, Helvetica, sans-serif;width:100%;height:100%;display:flex;flex-wrap:wrap;word-break:break-word;white-space:pre-wrap;text-align:center;justify-content:center;align-content:center;align-items:center" xmlns="http://www.w3.org/1999/xhtml">Future Aerial stack</span></foreignObject></g></g><g transform="translate(8, 48)"><foreignObject height="27" width="184" y="0" x="0" overflow="visible"><span style="overflow:visible;color:#5a5a5a;font-size:11px;line-height:1.2;font-family:Arial, Helvetica, sans-serif;width:100%;height:100%;display:flex;flex-wrap:wrap;word-break:break-word;white-space:pre-wrap;text-align:center;justify-content:center;align-content:flex-start;align-items:flex-start" xmlns="http://www.w3.org/1999/xhtml">Deferred vendor runtime</span></foreignObject></g></g></g></g></g></svg>
