<svg height="850" width="800" style="" font-family="Arial, Helvetica, sans-serif" xmlns="http://www.w3.org/2000/svg" viewBox="-20 -20 800 850"><defs /><defs><linearGradient id="gradient-0-0-0" x1="200" y1="420" x2="268" y2="70" gradientUnits="userSpaceOnUse"><stop offset="0%" stop-color="#0f766e" /><stop offset="100%" stop-color="#1d4ed8" /></linearGradient><linearGradient id="gradient-0-0-1" x1="200" y1="420" x2="268" y2="350" gradientUnits="userSpaceOnUse"><stop offset="0%" stop-color="#0f766e" /><stop offset="100%" stop-color="#0f172a" /></linearGradient><linearGradient id="gradient-0-0-2" x1="200" y1="420" x2="268" y2="630" gradientUnits="userSpaceOnUse"><stop offset="0%" stop-color="#0f766e" /><stop offset="100%" stop-color="#ea580c" /></linearGradient><linearGradient id="gradient-0-0-3" x1="200" y1="420" x2="268" y2="770" gradientUnits="userSpaceOnUse"><stop offset="0%" stop-color="#0f766e" /><stop offset="100%" stop-color="#475569" /></linearGradient><linearGradient id="gradient-0-0-0-0-0" x1="480" y1="70" x2="548" y2="70" gradientUnits="userSpaceOnUse"><stop offset="0%" stop-color="#1d4ed8" /><stop offset="100%" stop-color="#1d4ed8" /></linearGradient><linearGradient id="gradient-0-1-0-1-0" x1="480" y1="350" x2="548" y2="210" gradientUnits="userSpaceOnUse"><stop offset="0%" stop-color="#0f172a" /><stop offset="100%" stop-color="#0f172a" /></linearGradient><linearGradient id="gradient-0-1-0-1-1" x1="480" y1="350" x2="548" y2="350" gradientUnits="userSpaceOnUse"><stop offset="0%" stop-color="#0f172a" /><stop offset="100%" stop-color="#0f172a" /></linearGradient><linearGradient id="gradient-0-1-0-1-2" x1="480" y1="350" x2="548" y2="490" gradientUnits="userSpaceOnUse"><stop offset="0%" stop-color="#0f172a" /><stop offset="100%" stop-color="#0f172a" /></linearGradient><linearGradient id="gradient-0-2-0-2-0" x1="480" y1="630" x2="548" y2="630" gradientUnits="userSpaceOnUse"><stop offset="0%" stop-color="#ea580c" /><stop offset="100%" stop-color="#ea580c" /></linearGradient><linearGradient id="gradient-0-3-0-3-0" x1="480" y1="770" x2="548" y2="770" gradientUnits="userSpaceOnUse"><stop offset="0%" stop-color="#475569" /><stop offset="100%" stop-color="#475569" /></linearGradient><radialGradient id="#0f766e-badge" cx="50%" cy="50%" r="50%"><stop offset="0%" stop-color="#0f766e" /><stop offset="100%" stop-color="#031b1a" /></radialGradient><radialGradient id="#1d4ed8-badge" cx="50%" cy="50%" r="50%"><stop offset="0%" stop-color="#1d4ed8" /><stop offset="100%" stop-color="#112e7e" /></radialGradient><radialGradient id="#0f172a-badge" cx="50%" cy="50%" r="50%"><stop offset="0%" stop-color="#0f172a" /><stop offset="100%" stop-color="#000000" /></radialGradient><radialGradient id="#ea580c-badge" cx="50%" cy="50%" r="50%"><stop offset="0%" stop-color="#ea580c" /><stop offset="100%" stop-color="#893407" /></radialGradient><radialGradient id="#475569-badge" cx="50%" cy="50%" r="50%"><stop offset="0%" stop-color="#475569" /><stop offset="100%" stop-color="#1e242c" /></radialGradient></defs><g id="doc-panel-background"><rect x="-10" y="-10" width="780" height="830" rx="30" ry="30" fill="#fcfcfd" stroke="#cbd5e1" stroke-width="1.25" /></g><g id="infographic-container"><g><g><path d="M 200 420
            L 229 420
            Q 234 420 234 415
            L 234 75
            Q 234 70 239 70
            L 268 70" stroke="url(#gradient-0-0-0)" stroke-width="3" stroke-dasharray="" fill="none" /><polygon fill="#1d4ed8" width="12" height="12" points="280,70 268,64 268,76" /><path d="M 200 420
            L 229 420
            Q 234 420 234 415
            L 234 355
            Q 234 350 239 350
            L 268 350" stroke="url(#gradient-0-0-1)" stroke-width="3" stroke-dasharray="" fill="none" /><polygon fill="#0f172a" width="12" height="12" points="280,350 268,344 268,356" /><path d="M 200 420
            L 229 420
            Q 234 420 234 425
            L 234 625
            Q 234 630 239 630
            L 268 630" stroke="url(#gradient-0-0-2)" stroke-width="3" stroke-dasharray="" fill="none" /><polygon fill="#ea580c" width="12" height="12" points="280,630 268,624 268,636" /><path d="M 200 420
            L 229 420
            Q 234 420 234 425
            L 234 765
            Q 234 770 239 770
            L 268 770" stroke="url(#gradient-0-0-3)" stroke-width="3" stroke-dasharray="" fill="none" /><polygon fill="#475569" width="12" height="12" points="280,770 268,764 268,776" /><path d="M 480 70 L 514 70 L 514 70 L 548 70" stroke="url(#gradient-0-0-0-0-0)" stroke-width="3" stroke-dasharray="" fill="none" /><polygon fill="#1d4ed8" width="12" height="12" points="560,70 548,64 548,76" /><path d="M 480 350
            L 509 350
            Q 514 350 514 345
            L 514 215
            Q 514 210 519 210
            L 548 210" stroke="url(#gradient-0-1-0-1-0)" stroke-width="3" stroke-dasharray="" fill="none" /><polygon fill="#0f172a" width="12" height="12" points="560,210 548,204 548,216" /><path d="M 480 350 L 514 350 L 514 350 L 548 350" stroke="url(#gradient-0-1-0-1-1)" stroke-width="3" stroke-dasharray="" fill="none" /><polygon fill="#0f172a" width="12" height="12" points="560,350 548,344 548,356" /><path d="M 480 350
            L 509 350
            Q 514 350 514 355
            L 514 485
            Q 514 490 519 490
            L 548 490" stroke="url(#gradient-0-1-0-1-2)" stroke-width="3" stroke-dasharray="" fill="none" /><polygon fill="#0f172a" width="12" height="12" points="560,490 548,484 548,496" /><path d="M 480 630 L 514 630 L 514 630 L 548 630" stroke="url(#gradient-0-2-0-2-0)" stroke-width="3" stroke-dasharray="" fill="none" /><polygon fill="#ea580c" width="12" height="12" points="560,630 548,624 548,636" /><path d="M 480 770 L 514 770 L 514 770 L 548 770" stroke="url(#gradient-0-3-0-3-0)" stroke-width="3" stroke-dasharray="" fill="none" /><polygon fill="#475569" width="12" height="12" points="560,770 548,764 548,776" /></g><g><g transform="translate(0, 380)"><rect x="0" y="0" width="200" height="80" fill="#0f766e1a" rx="8" ry="8" /><g transform="translate(8, 33)"><g><foreignObject height="20" width="184" y="0" x="0" overflow="visible"><span style="overflow:visible;color:#262626;font-weight:bold;font-size:14px;line-height:1.4;font-family:Arial, Helvetica, sans-serif;width:100%;height:100%;display:flex;flex-wrap:wrap;word-break:break-word;white-space:pre-wrap;text-align:center;justify-content:center;align-content:center;align-items:center" xmlns="http://www.w3.org/1999/xhtml">node</span></foreignObject></g></g></g><g transform="translate(280, 30)"><rect x="0" y="0" width="200" height="80" fill="#1d4ed81a" rx="8" ry="8" /><g transform="translate(8, 33)"><g><foreignObject height="20" width="184" y="0" x="0" overflow="visible"><span style="overflow:visible;color:#262626;font-weight:bold;font-size:14px;line-height:1.4;font-family:Arial, Helvetica, sans-serif;width:100%;height:100%;display:flex;flex-wrap:wrap;word-break:break-word;white-space:pre-wrap;text-align:center;justify-content:center;align-content:center;align-items:center" xmlns="http://www.w3.org/1999/xhtml">association</span></foreignObject></g></g></g><g transform="translate(280, 310)"><rect x="0" y="0" width="200" height="80" fill="#0f172a1a" rx="8" ry="8" /><g transform="translate(8, 33)"><g><foreignObject height="20" width="184" y="0" x="0" overflow="visible"><span style="overflow:visible;color:#262626;font-weight:bold;font-size:14px;line-height:1.4;font-family:Arial, Helvetica, sans-serif;width:100%;height:100%;display:flex;flex-wrap:wrap;word-break:break-word;white-space:pre-wrap;text-align:center;justify-content:center;align-content:center;align-items:center" xmlns="http://www.w3.org/1999/xhtml">cell_group:cg-001</span></foreignObject></g></g></g><g transform="translate(280, 590)"><rect x="0" y="0" width="200" height="80" fill="#ea580c1a" rx="8" ry="8" /><g transform="translate(8, 33)"><g><foreignObject height="20" width="184" y="0" x="0" overflow="visible"><span style="overflow:visible;color:#262626;font-weight:bold;font-size:14px;line-height:1.4;font-family:Arial, Helvetica, sans-serif;width:100%;height:100%;display:flex;flex-wrap:wrap;word-break:break-word;white-space:pre-wrap;text-align:center;justify-content:center;align-content:center;align-items:center" xmlns="http://www.w3.org/1999/xhtml">backend_gateway:local</span></foreignObject></g></g></g><g transform="translate(280, 730)"><rect x="0" y="0" width="200" height="80" fill="#4755691a" rx="8" ry="8" /><g transform="translate(8, 33)"><g><foreignObject height="20" width="184" y="0" x="0" overflow="visible"><span style="overflow:visible;color:#262626;font-weight:bold;font-size:14px;line-height:1.4;font-family:Arial, Helvetica, sans-serif;width:100%;height:100%;display:flex;flex-wrap:wrap;word-break:break-word;white-space:pre-wrap;text-align:center;justify-content:center;align-content:center;align-items:center" xmlns="http://www.w3.org/1999/xhtml">change:chg-20260320-001</span></foreignObject></g></g></g><g transform="translate(560, 30)"><rect x="0" y="0" width="200" height="80" fill="#1d4ed81a" rx="8" ry="8" /><g transform="translate(8, 33)"><g><foreignObject height="20" width="184" y="0" x="0" overflow="visible"><span style="overflow:visible;color:#262626;font-weight:bold;font-size:14px;line-height:1.4;font-family:Arial, Helvetica, sans-serif;width:100%;height:100%;display:flex;flex-wrap:wrap;word-break:break-word;white-space:pre-wrap;text-align:center;justify-content:center;align-content:center;align-items:center" xmlns="http://www.w3.org/1999/xhtml">association session workers</span></foreignObject></g></g></g><g transform="translate(560, 170)"><rect x="0" y="0" width="200" height="80" fill="#0f172a1a" rx="8" ry="8" /><g transform="translate(8, 33)"><g><foreignObject height="20" width="184" y="0" x="0" overflow="visible"><span style="overflow:visible;color:#262626;font-weight:bold;font-size:14px;line-height:1.4;font-family:Arial, Helvetica, sans-serif;width:100%;height:100%;display:flex;flex-wrap:wrap;word-break:break-word;white-space:pre-wrap;text-align:center;justify-content:center;align-content:center;align-items:center" xmlns="http://www.w3.org/1999/xhtml">ue_subtree:ue-1</span></foreignObject></g></g></g><g transform="translate(560, 310)"><rect x="0" y="0" width="200" height="80" fill="#0f172a1a" rx="8" ry="8" /><g transform="translate(8, 33)"><g><foreignObject height="20" width="184" y="0" x="0" overflow="visible"><span style="overflow:visible;color:#262626;font-weight:bold;font-size:14px;line-height:1.4;font-family:Arial, Helvetica, sans-serif;width:100%;height:100%;display:flex;flex-wrap:wrap;word-break:break-word;white-space:pre-wrap;text-align:center;justify-content:center;align-content:center;align-items:center" xmlns="http://www.w3.org/1999/xhtml">scheduler_session</span></foreignObject></g></g></g><g transform="translate(560, 450)"><rect x="0" y="0" width="200" height="80" fill="#0f172a1a" rx="8" ry="8" /><g transform="translate(8, 33)"><g><foreignObject height="20" width="184" y="0" x="0" overflow="visible"><span style="overflow:visible;color:#262626;font-weight:bold;font-size:14px;line-height:1.4;font-family:Arial, Helvetica, sans-serif;width:100%;height:100%;display:flex;flex-wrap:wrap;word-break:break-word;white-space:pre-wrap;text-align:center;justify-content:center;align-content:center;align-items:center" xmlns="http://www.w3.org/1999/xhtml">fapi_session</span></foreignObject></g></g></g><g transform="translate(560, 590)"><rect x="0" y="0" width="200" height="80" fill="#ea580c1a" rx="8" ry="8" /><g transform="translate(8, 33)"><g><foreignObject height="20" width="184" y="0" x="0" overflow="visible"><span style="overflow:visible;color:#262626;font-weight:bold;font-size:14px;line-height:1.4;font-family:Arial, Helvetica, sans-serif;width:100%;height:100%;display:flex;flex-wrap:wrap;word-break:break-word;white-space:pre-wrap;text-align:center;justify-content:center;align-content:center;align-items:center" xmlns="http://www.w3.org/1999/xhtml">native sidecar process</span></foreignObject></g></g></g><g transform="translate(560, 730)"><rect x="0" y="0" width="200" height="80" fill="#4755691a" rx="8" ry="8" /><g transform="translate(8, 33)"><g><foreignObject height="20" width="184" y="0" x="0" overflow="visible"><span style="overflow:visible;color:#262626;font-weight:bold;font-size:14px;line-height:1.4;font-family:Arial, Helvetica, sans-serif;width:100%;height:100%;display:flex;flex-wrap:wrap;word-break:break-word;white-space:pre-wrap;text-align:center;justify-content:center;align-content:center;align-items:center" xmlns="http://www.w3.org/1999/xhtml">verify / rollback workers</span></foreignObject></g></g></g></g></g></g></svg>
