<svg height="871" width="691" style="" font-family="Arial, Helvetica, sans-serif" xmlns="http://www.w3.org/2000/svg" viewBox="-20 -20 691 871"><defs /><defs><linearGradient id="edge-gradient-0f766e-1d4ed8" gradientUnits="userSpaceOnUse" x1="130" y1="610" x2="130" y2="680"><stop offset="0%" stop-color="#0f766e" /><stop offset="100%" stop-color="#1d4ed8" /></linearGradient><linearGradient id="edge-gradient-1d4ed8-0f172a" gradientUnits="userSpaceOnUse" x1="320" y1="220" x2="355" y2="420"><stop offset="0%" stop-color="#1d4ed8" /><stop offset="100%" stop-color="#0f172a" /></linearGradient><linearGradient id="edge-gradient-1d4ed8-ea580c" gradientUnits="userSpaceOnUse" x1="232.30769230769232" y1="220" x2="130" y2="290"><stop offset="0%" stop-color="#1d4ed8" /><stop offset="100%" stop-color="#ea580c" /></linearGradient><linearGradient id="edge-gradient-ea580c-475569" gradientUnits="userSpaceOnUse" x1="130" y1="350" x2="130" y2="420"><stop offset="0%" stop-color="#ea580c" /><stop offset="100%" stop-color="#475569" /></linearGradient><linearGradient id="edge-gradient-475569-0f766e" gradientUnits="userSpaceOnUse" x1="130" y1="480" x2="130" y2="550"><stop offset="0%" stop-color="#475569" /><stop offset="100%" stop-color="#0f766e" /></linearGradient><linearGradient id="edge-gradient-0f172a-0f172a" gradientUnits="userSpaceOnUse" x1="450" y1="350" x2="415" y2="420"><stop offset="0%" stop-color="#0f172a" /><stop offset="100%" stop-color="#0f172a" /></linearGradient><filter id="compact-shadow"><feDropShadow dx="0" dy="2" stdDeviation="2" flood-opacity="0.15" /></filter></defs><g id="infographic-container"><g><g transform="translate(147, 0)"><foreignObject height="35" width="357" y="0" x="0" overflow="visible"><span style="overflow:visible;color:#262626;font-size:24px;line-height:1.4;font-family:Arial, Helvetica, sans-serif;width:100%;height:100%;display:flex;flex-wrap:wrap;word-break:break-word;white-space:pre-wrap;text-align:center;justify-content:center;align-content:flex-start;align-items:flex-start" xmlns="http://www.w3.org/1999/xhtml">Open RAN Agent at a glance</span></foreignObject></g><g transform="translate(0, 43)"><foreignObject height="48" width="651" y="0" x="0" overflow="visible"><span style="overflow:visible;color:#5a5a5a;font-size:16px;line-height:1.4;font-family:Arial, Helvetica, sans-serif;width:100%;height:100%;display:flex;flex-wrap:wrap;word-break:break-word;white-space:pre-wrap;text-align:center;justify-content:center;align-content:flex-start;align-items:flex-start" xmlns="http://www.w3.org/1999/xhtml">Operator surface, BEAM control ownership, native boundary, and evidence loop.</span></foreignObject></g></g><g transform="translate(50.5, 91)"><g><path d="M 320 90 L 320 113 Q 320 125 320 137 L 320 160" stroke="url(#edge-gradient-0f766e-1d4ed8)" stroke-width="2" stroke-dasharray="" fill="none" /><polygon fill="#1d4ed8" stroke="#1d4ed8" stroke-width="1.6" points="320,160 314.5,150 325.5,150" /><path d="M 380 220 L 439.266873708001 249.6334368540005 Q 450 255 450 267 L 450 290" stroke="url(#edge-gradient-1d4ed8-0f172a)" stroke-width="2" stroke-dasharray="" fill="none" /><polygon fill="#0f172a" stroke="#0f172a" stroke-width="1.6" points="450,290 444.5,280 455.5,280" /><path d="M 232.30769230769232 220 L 141.35396781944027 251.11574785124412 Q 130 255 130 267 L 130 290" stroke="url(#edge-gradient-1d4ed8-ea580c)" stroke-width="2" stroke-dasharray="" fill="none" /><polygon fill="#ea580c" stroke="#ea580c" stroke-width="1.6" points="130,290 124.5,280 135.5,280" /><path d="M 130 350 L 130 373 Q 130 385 130 397 L 130 420" stroke="url(#edge-gradient-ea580c-475569)" stroke-width="2" stroke-dasharray="" fill="none" /><polygon fill="#475569" stroke="#475569" stroke-width="1.6" points="130,420 124.5,410 135.5,410" /><path d="M 130 480 L 130 503 Q 130 515 130 527 L 130 550" stroke="url(#edge-gradient-475569-0f766e)" stroke-width="2" stroke-dasharray="" fill="none" /><polygon fill="#0f766e" stroke="#0f766e" stroke-width="1.6" points="130,550 124.5,540 135.5,540" /><path d="M 130 610 L 130 633 Q 130 645 130 657 L 130 680" stroke="url(#edge-gradient-0f766e-1d4ed8)" stroke-width="2" stroke-dasharray="" fill="none" /><polygon fill="#1d4ed8" stroke="#1d4ed8" stroke-width="1.6" points="130,680 124.5,670 135.5,670" /><path d="M 320 220 L 320 243 Q 320 255 320 267 L 320 308 Q 320 320 320 332 L 320 373 Q 320 385 328.4852813742386 393.4852813742386 L 355 420" stroke="url(#edge-gradient-1d4ed8-0f172a)" stroke-width="2" stroke-dasharray="" fill="none" /><polygon fill="#0f172a" stroke="#0f172a" stroke-width="1.6" points="355,420 344.03984489160854,416.8180194846605 351.8180194846605,409.03984489160854" /><path d="M 450 350 L 450 373 Q 450 385 441.5147186257614 393.4852813742386 L 415 420" stroke="url(#edge-gradient-0f172a-0f172a)" stroke-width="2" stroke-dasharray="" fill="none" /><polygon fill="#0f172a" stroke="#0f172a" stroke-width="1.6" points="415,420 418.1819805153395,409.03984489160854 425.96015510839146,416.8180194846605" /></g><g><g transform="translate(220, 30)"><rect x="0" y="0" width="200" height="60" fill="#ffffff" stroke="#ffffff" stroke-width="1" rx="6" ry="6" filter="url(#compact-shadow)" /><rect x="0" y="0" width="3" height="60" fill="#0f766e" rx="1.5" ry="1.5" /><g transform="translate(36, 8)"><g transform="translate(0, -0.5)"><g><foreignObject height="17" width="156" y="0" x="0" overflow="visible"><span style="overflow:visible;color:#262626;font-weight:bold;font-size:12px;line-height:1.4;font-family:Arial, Helvetica, sans-serif;width:100%;height:100%;display:flex;flex-wrap:wrap;word-break:break-word;white-space:pre-wrap;text-align:left;justify-content:flex-start;align-content:flex-start;align-items:flex-start" xmlns="http://www.w3.org/1999/xhtml">Operator surface</span></foreignObject></g></g><g transform="translate(0, 16.5)"><foreignObject height="28" width="156" y="0" x="0" overflow="visible"><span style="overflow:visible;color:#5a5a5a;font-size:10px;line-height:1.4;font-family:Arial, Helvetica, sans-serif;width:100%;height:100%;display:flex;flex-wrap:wrap;word-break:break-word;white-space:pre-wrap;text-align:left;justify-content:flex-start;align-content:center;align-items:center" xmlns="http://www.w3.org/1999/xhtml">Dashboard, skills, CI</span></foreignObject></g></g></g><g transform="translate(220, 160)"><rect x="0" y="0" width="200" height="60" fill="#ffffff" stroke="#ffffff" stroke-width="1" rx="6" ry="6" filter="url(#compact-shadow)" /><rect x="0" y="0" width="3" height="60" fill="#1d4ed8" rx="1.5" ry="1.5" /><g transform="translate(36, 8)"><g transform="translate(0, -0.5)"><g><foreignObject height="17" width="156" y="0" x="0" overflow="visible"><span style="overflow:visible;color:#262626;font-weight:bold;font-size:12px;line-height:1.4;font-family:Arial, Helvetica, sans-serif;width:100%;height:100%;display:flex;flex-wrap:wrap;word-break:break-word;white-space:pre-wrap;text-align:left;justify-content:flex-start;align-content:flex-start;align-items:flex-start" xmlns="http://www.w3.org/1999/xhtml">bin/ranctl</span></foreignObject></g></g><g transform="translate(0, 16.5)"><foreignObject height="28" width="156" y="0" x="0" overflow="visible"><span style="overflow:visible;color:#5a5a5a;font-size:10px;line-height:1.4;font-family:Arial, Helvetica, sans-serif;width:100%;height:100%;display:flex;flex-wrap:wrap;word-break:break-word;white-space:pre-wrap;text-align:left;justify-content:flex-start;align-content:center;align-items:center" xmlns="http://www.w3.org/1999/xhtml">Single mutable action entrypoint</span></foreignObject></g></g></g><g transform="translate(350, 290)"><rect x="0" y="0" width="200" height="60" fill="#ffffff" stroke="#ffffff" stroke-width="1" rx="6" ry="6" filter="url(#compact-shadow)" /><rect x="0" y="0" width="3" height="60" fill="#0f172a" rx="1.5" ry="1.5" /><g transform="translate(36, 8)"><g transform="translate(0, -0.5)"><g><foreignObject height="17" width="156" y="0" x="0" overflow="visible"><span style="overflow:visible;color:#262626;font-weight:bold;font-size:12px;line-height:1.4;font-family:Arial, Helvetica, sans-serif;width:100%;height:100%;display:flex;flex-wrap:wrap;word-break:break-word;white-space:pre-wrap;text-align:left;justify-content:flex-start;align-content:flex-start;align-items:flex-start" xmlns="http://www.w3.org/1999/xhtml">ran_core / ran_config</span></foreignObject></g></g><g transform="translate(0, 16.5)"><foreignObject height="28" width="156" y="0" x="0" overflow="visible"><span style="overflow:visible;color:#5a5a5a;font-size:10px;line-height:1.4;font-family:Arial, Helvetica, sans-serif;width:100%;height:100%;display:flex;flex-wrap:wrap;word-break:break-word;white-space:pre-wrap;text-align:left;justify-content:flex-start;align-content:center;align-items:center" xmlns="http://www.w3.org/1999/xhtml">Policy, topology, observability</span></foreignObject></g></g></g><g transform="translate(30, 290)"><rect x="0" y="0" width="200" height="60" fill="#ffffff" stroke="#ffffff" stroke-width="1" rx="6" ry="6" filter="url(#compact-shadow)" /><rect x="0" y="0" width="3" height="60" fill="#ea580c" rx="1.5" ry="1.5" /><g transform="translate(36, 8)"><g transform="translate(0, -0.5)"><g><foreignObject height="17" width="156" y="0" x="0" overflow="visible"><span style="overflow:visible;color:#262626;font-weight:bold;font-size:12px;line-height:1.4;font-family:Arial, Helvetica, sans-serif;width:100%;height:100%;display:flex;flex-wrap:wrap;word-break:break-word;white-space:pre-wrap;text-align:left;justify-content:flex-start;align-content:flex-start;align-items:flex-start" xmlns="http://www.w3.org/1999/xhtml">DU path</span></foreignObject></g></g><g transform="translate(0, 16.5)"><foreignObject height="28" width="156" y="0" x="0" overflow="visible"><span style="overflow:visible;color:#5a5a5a;font-size:10px;line-height:1.4;font-family:Arial, Helvetica, sans-serif;width:100%;height:100%;display:flex;flex-wrap:wrap;word-break:break-word;white-space:pre-wrap;text-align:left;justify-content:flex-start;align-content:center;align-items:center" xmlns="http://www.w3.org/1999/xhtml">ran_du_high plus scheduler host</span></foreignObject></g></g></g><g transform="translate(30, 420)"><rect x="0" y="0" width="200" height="60" fill="#ffffff" stroke="#ffffff" stroke-width="1" rx="6" ry="6" filter="url(#compact-shadow)" /><rect x="0" y="0" width="3" height="60" fill="#475569" rx="1.5" ry="1.5" /><g transform="translate(36, 8)"><g transform="translate(0, -0.5)"><g><foreignObject height="17" width="156" y="0" x="0" overflow="visible"><span style="overflow:visible;color:#262626;font-weight:bold;font-size:12px;line-height:1.4;font-family:Arial, Helvetica, sans-serif;width:100%;height:100%;display:flex;flex-wrap:wrap;word-break:break-word;white-space:pre-wrap;text-align:left;justify-content:flex-start;align-content:flex-start;align-items:flex-start" xmlns="http://www.w3.org/1999/xhtml">ran_fapi_core</span></foreignObject></g></g><g transform="translate(0, 16.5)"><foreignObject height="28" width="156" y="0" x="0" overflow="visible"><span style="overflow:visible;color:#5a5a5a;font-size:10px;line-height:1.4;font-family:Arial, Helvetica, sans-serif;width:100%;height:100%;display:flex;flex-wrap:wrap;word-break:break-word;white-space:pre-wrap;text-align:left;justify-content:flex-start;align-content:center;align-items:center" xmlns="http://www.w3.org/1999/xhtml">Canonical IR and capability checks</span></foreignObject></g></g></g><g transform="translate(30, 550)"><rect x="0" y="0" width="200" height="60" fill="#ffffff" stroke="#ffffff" stroke-width="1" rx="6" ry="6" filter="url(#compact-shadow)" /><rect x="0" y="0" width="3" height="60" fill="#0f766e" rx="1.5" ry="1.5" /><g transform="translate(36, 8)"><g transform="translate(0, -0.5)"><g><foreignObject height="17" width="156" y="0" x="0" overflow="visible"><span style="overflow:visible;color:#262626;font-weight:bold;font-size:12px;line-height:1.4;font-family:Arial, Helvetica, sans-serif;width:100%;height:100%;display:flex;flex-wrap:wrap;word-break:break-word;white-space:pre-wrap;text-align:left;justify-content:flex-start;align-content:flex-start;align-items:flex-start" xmlns="http://www.w3.org/1999/xhtml">Native boundary</span></foreignObject></g></g><g transform="translate(0, 16.5)"><foreignObject height="28" width="156" y="0" x="0" overflow="visible"><span style="overflow:visible;color:#5a5a5a;font-size:10px;line-height:1.4;font-family:Arial, Helvetica, sans-serif;width:100%;height:100%;display:flex;flex-wrap:wrap;word-break:break-word;white-space:pre-wrap;text-align:left;justify-content:flex-start;align-content:center;align-items:center" xmlns="http://www.w3.org/1999/xhtml">fapi_rt_gateway and adapters</span></foreignObject></g></g></g><g transform="translate(30, 680)"><rect x="0" y="0" width="200" height="60" fill="#ffffff" stroke="#ffffff" stroke-width="1" rx="6" ry="6" filter="url(#compact-shadow)" /><rect x="0" y="0" width="3" height="60" fill="#1d4ed8" rx="1.5" ry="1.5" /><g transform="translate(36, 8)"><g transform="translate(0, -0.5)"><g><foreignObject height="17" width="156" y="0" x="0" overflow="visible"><span style="overflow:visible;color:#262626;font-weight:bold;font-size:12px;line-height:1.4;font-family:Arial, Helvetica, sans-serif;width:100%;height:100%;display:flex;flex-wrap:wrap;word-break:break-word;white-space:pre-wrap;text-align:left;justify-content:flex-start;align-content:flex-start;align-items:flex-start" xmlns="http://www.w3.org/1999/xhtml">Backend runtime</span></foreignObject></g></g><g transform="translate(0, 16.5)"><foreignObject height="28" width="156" y="0" x="0" overflow="visible"><span style="overflow:visible;color:#5a5a5a;font-size:10px;line-height:1.4;font-family:Arial, Helvetica, sans-serif;width:100%;height:100%;display:flex;flex-wrap:wrap;word-break:break-word;white-space:pre-wrap;text-align:left;justify-content:flex-start;align-content:center;align-items:center" xmlns="http://www.w3.org/1999/xhtml">DU low, fronthaul, vendor workers</span></foreignObject></g></g></g><g transform="translate(285, 420)"><rect x="0" y="0" width="200" height="60" fill="#ffffff" stroke="#ffffff" stroke-width="1" rx="6" ry="6" filter="url(#compact-shadow)" /><rect x="0" y="0" width="3" height="60" fill="#0f172a" rx="1.5" ry="1.5" /><g transform="translate(36, 8)"><g transform="translate(0, -0.5)"><g><foreignObject height="17" width="156" y="0" x="0" overflow="visible"><span style="overflow:visible;color:#262626;font-weight:bold;font-size:12px;line-height:1.4;font-family:Arial, Helvetica, sans-serif;width:100%;height:100%;display:flex;flex-wrap:wrap;word-break:break-word;white-space:pre-wrap;text-align:left;justify-content:flex-start;align-content:flex-start;align-items:flex-start" xmlns="http://www.w3.org/1999/xhtml">Artifacts and evidence</span></foreignObject></g></g><g transform="translate(0, 16.5)"><foreignObject height="28" width="156" y="0" x="0" overflow="visible"><span style="overflow:visible;color:#5a5a5a;font-size:10px;line-height:1.4;font-family:Arial, Helvetica, sans-serif;width:100%;height:100%;display:flex;flex-wrap:wrap;word-break:break-word;white-space:pre-wrap;text-align:left;justify-content:flex-start;align-content:center;align-items:center" xmlns="http://www.w3.org/1999/xhtml">Plans, captures, remote runs</span></foreignObject></g></g></g></g></g></g></svg>
